<?xml version="1.0" encoding="UTF-8" standalone="no"?>
<!-- Created with Inkscape (http://www.inkscape.org/) -->

<svg
   width="42.986835mm"
   height="31.866613mm"
   viewBox="0 0 42.986836 31.866614"
   version="1.1"
   id="svg1"
   inkscape:version="1.4 (e7c3feb100, 2024-10-09)"
   sodipodi:docname="eoflag.svg"
   xmlns:inkscape="http://www.inkscape.org/namespaces/inkscape"
   xmlns:sodipodi="http://sodipodi.sourceforge.net/DTD/sodipodi-0.dtd"
   xmlns="http://www.w3.org/2000/svg"
   xmlns:svg="http://www.w3.org/2000/svg">
  <sodipodi:namedview
     id="namedview1"
     pagecolor="#ffffff"
     bordercolor="#666666"
     borderopacity="1.0"
     inkscape:showpageshadow="2"
     inkscape:pageopacity="0.0"
     inkscape:pagecheckerboard="0"
     inkscape:deskcolor="#d1d1d1"
     inkscape:document-units="mm"
     inkscape:zoom="4.1467785"
     inkscape:cx="91.516824"
     inkscape:cy="66.557691"
     inkscape:window-width="2560"
     inkscape:window-height="1371"
     inkscape:window-x="0"
     inkscape:window-y="0"
     inkscape:window-maximized="1"
     inkscape:current-layer="layer1" />
  <defs
     id="defs1">
    <inkscape:path-effect
       effect="envelope"
       id="path-effect1"
       is_visible="true"
       lpeversion="1"
       yy="true"
       xx="false"
       bendpath1="M 1.0006174,3.6022229 C 10.012127,-3.2742587 33.769869,4.5419602 43.754531,1.1776501"
       bendpath2="M 43.626922,3.6022229 V 31.219265"
       bendpath3="M 1.0644219,32.240138 C 9.612422,26.279229 28.461228,35.743164 43.690727,31.28307"
       bendpath4="M 1.0006174,3.6022229 V 31.219265"
       bendpath1-nodetypes="cc"
       bendpath3-nodetypes="cc" />
  </defs>
  <g
     inkscape:label="Layer 1"
     inkscape:groupmode="layer"
     id="layer1"
     transform="translate(-0.99967365,-0.65284379)">
    <g
       id="g1"
       inkscape:path-effect="#path-effect1">
      <path
         style="font-variation-settings:'wght' 700;fill:#009900;fill-opacity:1;stroke:none;stroke-width:0.369989;stroke-linecap:round"
         id="rect1"
         width="42.626305"
         height="27.617043"
         x="1.0006174"
         y="3.6022229"
         sodipodi:type="rect"
         d="M 0.99967365,3.5991973 C 3.2636246,1.8711587 6.1370678,1.1974761 8.9915075,0.89176925 c 0.362961,-0.0388598 0.7256107,-0.0717646 1.0866565,-0.10012566 3.223489,-0.2533177 6.461496,-0.12474699 9.690122,0.10478019 0,6e-8 1e-6,1.1e-7 2e-6,1.6e-7 0.748657,0.0532259 1.496805,0.11187996 2.244147,0.17245916 1e-6,10e-8 1e-6,2e-7 2e-6,2e-7 3.260613,0.2642938 6.516432,0.6054859 9.780443,0.8130855 1e-6,10e-8 2e-6,10e-8 2e-6,2e-7 0.778296,0.049505 1.557059,0.09141 2.336464,0.1228634 0,0 1e-6,0 2e-6,10e-8 3.234133,0.1304524 6.55729,0.202422 9.624087,-0.8307402 0.330667,9.9243207 0.309488,19.9594187 -0.06354,30.1052927 -3.092518,0.905532 -6.322756,1.233214 -9.550818,1.239964 -0.777986,0.0016 -1.555865,-0.01535 -2.331678,-0.04738 -1e-6,0 -1e-6,0 -2e-6,0 -3.253599,-0.134345 -6.488324,-0.532221 -9.716386,-0.971332 -10e-7,0 -2e-6,0 -3e-6,0 -0.739894,-0.100645 -1.479437,-0.203457 -2.218775,-0.305759 -10e-7,0 -2e-6,0 -2e-6,0 -3.188379,-0.441191 -6.386669,-0.912772 -9.601656,-0.986482 -0.3600975,-0.0082 -0.720401,-0.0115 -1.0809203,-0.0092 -2.8352926,0.01824 -5.8002689,0.415521 -8.1259531,2.037668 0.2973398,-9.778514 0.2759959,-19.324413 -0.064032,-28.6376947 z" />
      <path
         style="font-variation-settings:'wght' 700;fill:#ffffff;fill-opacity:1;stroke:none;stroke-width:0.395999;stroke-linecap:round;stroke-opacity:1"
         id="rect2"
         width="16.810373"
         height="14.008645"
         x="1.0006174"
         y="3.6022229"
         sodipodi:type="rect"
         d="M 0.99967365,3.5991973 C 3.2636246,1.8711587 6.1370678,1.1974761 8.9915075,0.89176925 9.3544685,0.85290948 9.7171182,0.82000468 10.078164,0.79164359 12.571088,0.59573731 15.072695,0.6282342 17.57193,0.75919224 17.977598,5.8890554 18.188718,11.001468 18.205288,16.096431 c -2.376701,-0.24255 -4.821572,-0.429429 -7.330761,-0.39613 -0.366597,0.02747 -0.728963,0.05143 -1.0864674,0.0729 -2.8651767,-0.01966 -5.937409,0.450562 -8.5169433,2.177938 C 1.2626324,13.107306 1.1721515,8.3233259 0.99967365,3.5991973 Z" />
      <path
         sodipodi:type="star"
         style="font-variation-settings:'wght' 700;fill:#009900;fill-opacity:1;stroke:none;stroke-width:0.395999;stroke-linecap:round;stroke-opacity:1"
         id="path2"
         inkscape:flatsided="false"
         sodipodi:sides="5"
         sodipodi:cx="-26.416302"
         sodipodi:cy="9.0055571"
         sodipodi:r1="17.621098"
         sodipodi:r2="7.0499163"
         sodipodi:arg1="-1.5367186"
         sodipodi:arg2="-0.90840014"
         inkscape:rounded="0"
         inkscape:randomized="0"
         d="m -26.544876,-15.876245 c 0.08976,0.223011 0.179337,0.446284 0.268733,0.669828 1.300809,3.24891 2.590598,6.6002346 3.818933,9.8644522 0.241975,0.6529797 0.482389,1.3070585 0.721265,1.96237 4.299028,0.056485 8.557419,0.3483103 12.7697133,0.7803803 -3.2409353,2.44876148 -6.6522283,5.0552373 -9.9859593,7.6545813 1.286005,4.3386283 2.496161,8.6940162 3.639174,13.0962792 -2.072837,-1.696606 -4.167562,-3.334188 -6.291114,-4.906836 -1.037221,-0.701041 -2.058314,-1.404434 -3.076581,-2.115509 -0.364292,-0.272043 -0.729845,-0.540801 -1.096512,-0.806134 -3.559096,2.512226 -7.24899,5.281472 -10.872476,8.516258 1.358334,-4.511608 2.646774,-8.8787938 3.887313,-13.2804448 -3.51119,-2.2499266 -6.96852,-4.0747748 -10.222367,-5.39665524 4.040514,-1.74615876 8.381646,-2.69059756 12.73087,-3.14993756 1.315868,-4.3155721 2.541421,-8.5590824 3.709008,-12.8886324 z"
         inkscape:transform-center-x="0.2036298"
         inkscape:transform-center-y="-1.091228"
         transform="matrix(0.36075875,0,0,0.36075875,18.625205,7.9786088)" />
    </g>
  </g>
</svg>
