<?xml version="1.0" encoding="UTF-8" standalone="no"?>
<!-- Created with Inkscape (http://www.inkscape.org/) -->

<svg
   width="80mm"
   height="80mm"
   viewBox="0 0 80 80"
   version="1.1"
   id="svg5"
   xmlns="http://www.w3.org/2000/svg"
   xmlns:svg="http://www.w3.org/2000/svg">
  <defs
     id="defs2" />
  <g
     id="layer1"
     transform="translate(-1.6714471,-1.0303301)">
    <path
       style="fill:#009900;fill-opacity:0.33;stroke:#ffffff;stroke-linecap:square"
       id="path846-7-1"
       transform="matrix(0.22831323,0.13370642,-0.13370642,0.22831323,57.298386,1.5553508)"
       d="M 31.332584,301.79657 18.159438,188.92911 -92.251608,162.05909 11.021003,114.65272 2.4570172,1.3422883 79.456147,84.911003 184.57436,41.751319 128.88983,140.806 202.42044,227.44228 91.006377,205.09272 Z" />
    <path
       style="fill:#009900;fill-opacity:0.655125;stroke:#ffffff;stroke-linecap:square"
       id="path846-7"
       transform="matrix(0.24616487,0.0969907,-0.0969907,0.24616487,35.2415,0.63394324)"
       d="M 31.332584,301.79657 18.159438,188.92911 -92.251608,162.05909 11.021003,114.65272 2.4570172,1.3422883 79.456147,84.911003 184.57436,41.751319 128.88983,140.806 202.42044,227.44228 91.006377,205.09272 Z" />
    <path
       style="fill:#009900;fill-opacity:1;stroke:#ffffff;stroke-linecap:square"
       id="path846"
       d="M 31.332584,301.79657 18.159438,188.92911 -92.251608,162.05909 11.021003,114.65272 2.4570172,1.3422883 79.456147,84.911003 184.57436,41.751319 128.88983,140.806 202.42044,227.44228 91.006377,205.09272 Z"
       transform="matrix(0.26377035,0.02072536,-0.02072536,0.26377035,14.71013,1.420258)" />
  </g>
</svg>
